<?xml version="1.0" encoding="utf-8"?>
<!-- Generator: Adobe Illustrator 17.0.0, SVG Export Plug-In . SVG Version: 6.00 Build 0)  -->
<!DOCTYPE svg PUBLIC "-//W3C//DTD SVG 1.1//EN" "http://www.w3.org/Graphics/SVG/1.1/DTD/svg11.dtd">
<svg version="1.1" id="Calque_1" xmlns="http://www.w3.org/2000/svg" xmlns:xlink="http://www.w3.org/1999/xlink" x="0px" y="0px"
	 width="939.922px" height="240.712px" viewBox="0 0 939.922 240.712" enable-background="new 0 0 939.922 240.712"
	 xml:space="preserve">
<g>
	<g>
		<path fill="#333333" d="M346.451,237.712c-5.269,0-10.397-2.442-13.065-6.224c-2.512-3.347-2.949-5.284-4.214-12.152
			l-6.944-42.752l-12.882,42.895c-2.523,8.47-3.555,10.991-6.456,13.684c-3.003,2.977-7.268,4.55-12.337,4.55
			c-9.183,0-14.705-4.636-17.903-15.03l-15.039-46.522l-6.725,43.096c-1.076,6.635-1.662,8.759-4.03,12.203
			c-2.689,3.812-7.818,6.254-13.086,6.254c-9.274,0-16.267-7.222-16.267-16.798c0-2.062,0.254-4.384,0.755-6.903l13.966-85.917
			c1.829-11.379,9.549-17.908,21.181-17.908c9.263,0,16.979,5.327,19.658,13.57l16.903,51.917l15.414-49.232
			c3.211-10.033,11.152-16.255,20.729-16.255c10.389,0,19.146,6.997,20.822,16.638l15.028,86.808
			c0.894,4.298,0.937,5.219,0.937,7.461C362.895,230.566,355.825,237.712,346.451,237.712z"/>
		<path fill="#FFFFFF" d="M326.108,113.185c8.845,0,16.451,6.015,17.866,14.151l15.036,86.855c0.884,4.245,0.884,4.953,0.884,6.899
			c0,7.783-5.837,13.62-13.444,13.62c-4.246,0-8.491-1.945-10.614-4.953c-2.123-2.83-2.477-4.245-3.715-10.967l-9.021-55.545
			l-16.628,55.368c-2.477,8.313-3.361,10.26-5.661,12.382c-2.477,2.477-6.014,3.715-10.26,3.715
			c-7.783,0-12.206-3.715-15.036-12.913l-18.928-58.552l-8.668,55.545c-1.061,6.545-1.592,8.137-3.538,10.967
			c-2.123,3.008-6.368,4.953-10.614,4.953c-7.606,0-13.267-5.837-13.267-13.798c0-1.592,0.177-3.715,0.708-6.368l13.975-85.971
			c1.592-9.906,7.96-15.39,18.22-15.39c7.96,0,14.505,4.422,16.805,11.498l19.812,60.852l18.22-58.198
			C311.072,118.492,317.794,113.185,326.108,113.185 M326.108,107.185c-10.929,0-19.964,7.021-23.581,18.323l-12.618,40.302
			l-13.995-42.984c-3.088-9.5-11.924-15.641-22.51-15.641c-13.061,0-22.087,7.64-24.144,20.438l-13.956,85.856
			c-0.532,2.692-0.802,5.192-0.802,7.435c0,11.287,8.283,19.798,19.267,19.798c6.212,0,12.303-2.941,15.516-7.493l0.021-0.03
			l0.021-0.03c2.663-3.874,3.392-6.474,4.516-13.406l4.788-30.68l11.164,34.534c2.27,7.357,6.896,17.106,20.758,17.106
			c5.859,0,10.84-1.861,14.414-5.385c3.543-3.303,4.749-6.583,7.257-14.999l9.132-30.407l4.845,29.832l0.01,0.063l0.012,0.062
			c1.303,7.071,1.859,9.519,4.768,13.416c3.227,4.508,9.283,7.417,15.461,7.417c10.903,0,19.444-8.618,19.444-19.62
			c0-2.455-0.077-3.631-0.99-8.023l-15.019-86.755C347.959,115.228,337.959,107.185,326.108,107.185L326.108,107.185z"/>
	</g>
	<g>
		<path fill="#333333" d="M384.839,237.182c-5.923,0-11.551-3.297-14.004-8.203c-1.891-3.569-2.086-5.491-2.086-12.133v-57.491
			c0-6.536,0.208-8.588,2.118-12.194c2.421-4.844,8.049-8.141,13.973-8.141c5.817,0,11.375,3.297,13.828,8.203
			c1.891,3.569,2.086,5.491,2.086,12.132v57.491c0,6.535-0.208,8.586-2.118,12.194C396.213,233.885,390.656,237.182,384.839,237.182
			z M385.015,136.528c-10.213,0-18.213-8-18.213-18.213c0-9.945,8.25-18.036,18.39-18.036c9.681,0,17.859,8.26,17.859,18.036
			C403.051,128.358,394.961,136.528,385.015,136.528z"/>
		<path fill="#FFFFFF" d="M385.193,103.279c8.137,0,14.859,6.898,14.859,15.036c0,8.491-6.722,15.213-15.036,15.213
			c-8.491,0-15.213-6.722-15.213-15.213C369.802,110.001,376.701,103.279,385.193,103.279 M384.839,142.02
			c4.599,0,9.199,2.653,11.145,6.545c1.592,3.007,1.769,4.422,1.769,10.79v57.491c0,6.191-0.177,7.783-1.769,10.791
			c-1.946,3.892-6.545,6.545-11.145,6.545c-4.776,0-9.375-2.653-11.321-6.545c-1.592-3.008-1.769-4.423-1.769-10.791v-57.491
			c0-6.19,0.177-7.783,1.769-10.79C375.463,144.673,380.062,142.02,384.839,142.02 M385.193,97.279
			c-11.795,0-21.39,9.437-21.39,21.036c0,8.899,5.214,16.355,12.822,19.547c-3.643,1.704-6.689,4.492-8.44,7.952
			c-2.236,4.243-2.436,6.947-2.436,13.541v57.491c0,6.725,0.19,9.278,2.436,13.541c2.966,5.862,9.649,9.795,16.654,9.795
			c6.901,0,13.513-3.934,16.478-9.796c2.235-4.244,2.435-6.948,2.435-13.539v-57.491c0-6.724-0.19-9.277-2.436-13.539
			c-1.732-3.424-4.708-6.19-8.259-7.898c7.621-3.191,12.993-10.775,12.993-19.602c0-5.531-2.167-10.779-6.101-14.778
			C395.98,99.502,390.739,97.279,385.193,97.279L385.193,97.279z"/>
	</g>
	<g>
		<path fill="#333333" d="M483.544,237.182c-5.923,0-11.551-3.297-14.005-8.203c-1.89-3.57-2.085-5.491-2.085-12.133v-36.44
			c0-8.423-4.301-13.451-11.505-13.451c-6.66,0-11.682,5.326-11.682,12.39v37.502c0,6.535-0.208,8.587-2.117,12.194
			c-2.421,4.845-7.979,8.142-13.796,8.142c-5.923,0-11.551-3.297-14.004-8.203c-1.891-3.569-2.086-5.491-2.086-12.133v-59.613
			c0-10.894,6.537-18.213,16.267-18.213c5.874,0,10.088,2.304,13.018,7.188c6.917-5.577,13.471-7.72,22.892-7.72
			c9.703,0,17.975,2.86,24.589,8.501c7.715,6.922,10.429,14.033,10.429,27.225v42.632c0,6.534-0.208,8.585-2.118,12.194
			C494.919,233.885,489.363,237.182,483.544,237.182z"/>
		<path fill="#FFFFFF" d="M464.44,141.488c9.021,0,16.627,2.653,22.642,7.783c6.899,6.191,9.376,12.56,9.376,24.942v42.632
			c0,6.191-0.178,7.783-1.77,10.791c-1.945,3.892-6.545,6.545-11.145,6.545c-4.775,0-9.375-2.653-11.321-6.545
			c-1.592-3.008-1.769-4.423-1.769-10.791v-36.44c0-10.083-5.661-16.451-14.505-16.451c-8.313,0-14.682,6.723-14.682,15.39v37.502
			c0,6.191-0.177,7.783-1.769,10.791c-1.946,3.892-6.545,6.545-11.145,6.545c-4.776,0-9.375-2.653-11.321-6.545
			c-1.592-3.008-1.769-4.423-1.769-10.791v-59.613c0-9.198,5.307-15.213,13.267-15.213c5.837,0,9.552,2.653,12.029,9.021
			C448.166,143.965,454.357,141.488,464.44,141.488 M464.44,135.488c-9.065,0-15.667,1.833-22.273,6.485
			c-3.38-3.957-7.942-5.953-13.637-5.953c-11.344,0-19.267,8.723-19.267,21.213v59.613c0,6.726,0.19,9.278,2.436,13.541
			c2.966,5.862,9.649,9.795,16.654,9.795c6.901,0,13.512-3.933,16.478-9.795c2.235-4.244,2.435-6.948,2.435-13.541v-37.502
			c0-5.353,3.732-9.39,8.682-9.39c7.4,0,8.505,6.548,8.505,10.451v36.44c0,6.726,0.19,9.278,2.436,13.542
			c2.967,5.861,9.649,9.794,16.654,9.794c6.901,0,13.513-3.934,16.478-9.796c2.236-4.246,2.436-6.949,2.436-13.54v-42.632
			c0-14.001-3.081-21.971-11.369-29.408l-0.056-0.05l-0.057-0.049C483.804,138.59,474.876,135.488,464.44,135.488L464.44,135.488z"
			/>
	</g>
	<g>
		<path fill="#333333" d="M526.708,237.182c-5.923,0-11.551-3.297-14.005-8.203c-1.89-3.57-2.085-5.491-2.085-12.133v-57.491
			c0-6.536,0.208-8.587,2.117-12.193c2.422-4.845,8.05-8.142,13.973-8.142c5.817,0,11.374,3.297,13.828,8.203
			c1.89,3.568,2.085,5.49,2.085,12.132v57.491c0,6.535-0.208,8.587-2.117,12.194C538.082,233.885,532.526,237.182,526.708,237.182z
			 M526.885,136.528c-10.213,0-18.213-8-18.213-18.213c0-9.945,8.25-18.036,18.39-18.036c9.681,0,17.859,8.26,17.859,18.036
			C544.921,128.358,536.83,136.528,526.885,136.528z"/>
		<path fill="#FFFFFF" d="M527.062,103.279c8.138,0,14.859,6.898,14.859,15.036c0,8.491-6.722,15.213-15.036,15.213
			c-8.491,0-15.213-6.722-15.213-15.213C511.672,110.001,518.572,103.279,527.062,103.279 M526.708,142.02
			c4.6,0,9.198,2.653,11.145,6.545c1.592,3.007,1.769,4.422,1.769,10.79v57.491c0,6.191-0.177,7.783-1.769,10.791
			c-1.946,3.892-6.545,6.545-11.145,6.545c-4.776,0-9.375-2.653-11.321-6.545c-1.592-3.008-1.769-4.423-1.769-10.791v-57.491
			c0-6.19,0.177-7.783,1.769-10.79C517.333,144.673,521.932,142.02,526.708,142.02 M527.062,97.279
			c-11.794,0-21.39,9.437-21.39,21.036c0,8.899,5.215,16.355,12.822,19.547c-3.643,1.704-6.689,4.492-8.44,7.952
			c-2.236,4.243-2.436,6.947-2.436,13.54v57.491c0,6.726,0.189,9.278,2.436,13.542c2.967,5.861,9.649,9.794,16.654,9.794
			c6.9,0,13.511-3.933,16.477-9.795c2.235-4.245,2.436-6.948,2.436-13.541v-57.491c0-6.726-0.19-9.279-2.436-13.541
			c-1.732-3.423-4.708-6.188-8.258-7.896c7.621-3.191,12.994-10.775,12.994-19.602c0-5.531-2.167-10.779-6.101-14.778
			C537.849,99.502,532.608,97.279,527.062,97.279L527.062,97.279z"/>
	</g>
	<g>
		<path fill="#333333" d="M587.559,237.712c-19.652,0-36.256-9.96-36.256-21.75c0-7.681,6.573-14.676,13.79-14.676
			c3.64,0,4.054,0.183,14.654,4.854c3.795,1.738,6.8,2.575,9.227,2.575c2.497,0,4.606-1.381,4.606-3.015c0-0.798,0-1.79-7.966-4.8
			c-13.356-4.939-16.938-6.769-21.566-10.101c-6.882-4.916-10.092-11.65-10.092-21.186c0-17.745,15.663-31.127,36.433-31.127
			c17.64,0,32.542,9.556,32.542,20.866c0,7.63-6.113,14.322-13.083,14.322c-3.559,0-4.246-0.268-12.187-3.797
			c-4.356-1.98-7.127-2.395-8.688-2.395c-1.878,0-3.898,0.5-3.898,1.599c0,1.163,0,1.645,11.714,6.228
			c11.854,4.742,15.94,7.095,20.84,11.994l0.087,0.09c4.685,5.092,7.161,11.422,7.161,18.306
			C624.877,224.549,609.531,237.712,587.559,237.712z"/>
		<path fill="#FFFFFF" d="M590.389,141.488c15.744,0,29.542,8.314,29.542,17.866c0,5.838-4.776,11.322-10.083,11.322
			c-2.83,0-3.007,0-10.968-3.538c-3.892-1.77-7.253-2.653-9.906-2.653c-4.245,0-6.898,1.769-6.898,4.599
			c0,3.361,1.415,4.246,13.621,9.021c11.498,4.6,15.213,6.723,19.812,11.321c4.069,4.423,6.369,9.906,6.369,16.274
			c0,17.159-13.976,29.011-34.318,29.011c-17.689,0-33.256-8.845-33.256-18.75c0-6.015,5.307-11.676,10.79-11.676
			c3.008,0,3.008,0,13.444,4.6c4.245,1.945,7.606,2.83,10.437,2.83c4.246,0,7.606-2.653,7.606-6.015
			c0-3.007-1.945-4.599-9.905-7.606c-12.914-4.775-16.452-6.545-20.874-9.729c-6.191-4.423-8.845-10.261-8.845-18.751
			C556.956,153.518,571.284,141.488,590.389,141.488 M590.389,135.488c-22.48,0-39.433,14.671-39.433,34.127
			c0,10.589,3.609,18.098,11.357,23.633c5.185,3.733,9.354,5.694,22.281,10.474c2.279,0.861,3.763,1.506,4.73,1.978
			c-0.111,0.01-0.228,0.015-0.351,0.015c-1.958,0-4.629-0.769-7.937-2.285l-0.04-0.018l-0.04-0.018
			c-10.938-4.821-11.593-5.109-15.864-5.109c-8.787,0-16.79,8.425-16.79,17.676c0,6.953,4.754,13.628,13.042,18.313
			c7.344,4.151,16.654,6.437,26.214,6.437c23.739,0,40.318-14.397,40.318-35.011c0-7.649-2.75-14.682-7.954-20.337l-0.085-0.092
			l-0.088-0.088c-3.741-3.741-7.113-6.085-12.377-8.604c0.745,0.076,1.529,0.097,2.474,0.097c8.568,0,16.083-8.095,16.083-17.322
			c0-6.701-4.288-13.134-11.765-17.651C607.531,137.696,599.087,135.488,590.389,135.488L590.389,135.488z"/>
	</g>
	<g>
		<path fill="#333333" d="M655.135,237.182c-5.923,0-11.551-3.297-14.005-8.203c-1.89-3.57-2.085-5.491-2.085-12.133v-47.13
			c-4.853-0.247-9.456-1.284-12.419-4.932c-2.394-2.828-3.679-6.189-3.679-9.675c0-7.543,5.049-13.342,12.573-14.455
			c1.363-0.272,1.936-0.357,3.524-0.384v-10.457c0-6.202,0.165-8.524,2.119-12.022c2.472-4.87,8.075-8.137,13.971-8.137
			c5.667,0,11.343,3.28,13.802,7.977c1.916,3.62,2.111,5.541,2.111,12.183v10.444h1.776c5.615,0,7.727,0.148,11.248,1.908
			c4.506,2.37,7.496,7.489,7.496,12.767c0,5.299-3.06,10.609-7.441,12.915c-3.52,1.761-5.28,1.937-11.303,1.937h-1.776v47.062
			c0,6.535-0.208,8.587-2.117,12.194C666.51,233.885,660.953,237.182,655.135,237.182z"/>
		<path fill="#FFFFFF" d="M655.135,112.654c4.6,0,9.199,2.653,11.145,6.368c1.592,3.008,1.769,4.423,1.769,10.791v13.444h4.776
			c5.661,0,7.076,0.177,9.906,1.592c3.361,1.769,5.838,5.838,5.838,10.083s-2.477,8.491-5.838,10.26
			c-2.83,1.415-4.068,1.592-9.906,1.592h-4.776v50.062c0,6.191-0.177,7.783-1.769,10.791c-1.945,3.892-6.545,6.545-11.145,6.545
			c-4.776,0-9.375-2.653-11.321-6.545c-1.592-3.008-1.769-4.423-1.769-10.791v-50.062c-6.899,0-10.791-1.061-13.091-3.892
			c-1.945-2.3-3.007-4.953-3.007-7.783c0-6.015,3.892-10.613,10.083-11.498c1.769-0.354,1.769-0.354,6.015-0.354v-13.444
			c0-6.191,0.177-7.783,1.769-10.613C645.76,115.308,650.359,112.654,655.135,112.654 M655.135,106.654
			c-6.977,0-13.633,3.901-16.617,9.724c-2.268,4.078-2.472,6.803-2.472,13.436v7.691c-0.314,0.052-0.651,0.116-1.039,0.193
			c-9.015,1.366-15.059,8.342-15.059,17.412c0,4.186,1.518,8.202,4.39,11.616c3.012,3.675,7.283,5.162,11.708,5.731v44.389
			c0,6.725,0.19,9.278,2.435,13.54c2.967,5.862,9.649,9.796,16.655,9.796c6.901,0,13.513-3.934,16.478-9.796
			c2.235-4.244,2.435-6.948,2.435-13.54v-44.065c5.259-0.03,7.544-0.311,11.366-2.222l0.056-0.028l0.055-0.029
			c5.41-2.846,9.044-9.103,9.044-15.57c0-6.361-3.635-12.547-9.044-15.393l-0.055-0.029l-0.056-0.028
			c-3.798-1.899-6.204-2.19-11.366-2.222v-7.448c0-6.755-0.191-9.3-2.465-13.598C668.593,110.506,661.978,106.654,655.135,106.654
			L655.135,106.654z"/>
	</g>
	<g>
		<path fill="#333333" d="M729.608,237.712c-10.311,0-19.607-3.585-27.633-10.654c-10.887-9.572-16.407-22.829-16.407-39.399
			c0-15.154,4.614-26.739,14.521-36.459c8.309-8.309,18.4-12.711,29.166-12.711c8.604,0,14.534,2.226,21.255,8.27
			c3.194-5.259,7.649-7.738,13.771-7.738c8.923,0,15.913,7.146,15.913,16.267v63.506c0,10.827-6.617,18.39-16.091,18.39
			c-5.978,0-10.604-2.649-13.805-7.89C744.376,235.437,738.54,237.712,729.608,237.712z M732.438,168.724
			c-8.892,0-14.866,7.681-14.866,19.111c0,11.933,5.904,19.643,15.043,19.643c8.893,0,14.867-7.822,14.867-19.466
			C747.482,176.475,741.436,168.724,732.438,168.724z"/>
		<path fill="#FFFFFF" d="M729.254,141.488c9.198,0,14.682,2.653,22.111,10.26c2.831-6.898,6.723-9.729,12.914-9.729
			c7.252,0,12.913,5.837,12.913,13.267v63.506c0,9.198-5.307,15.39-13.091,15.39c-6.19,0-10.437-3.361-13.09-10.26
			c-6.545,8.137-11.852,10.79-21.404,10.79s-18.22-3.36-25.649-9.905c-10.261-9.022-15.391-21.404-15.391-37.148
			c0-14.328,4.246-25.119,13.621-34.317C709.972,145.558,719.171,141.488,729.254,141.488 M732.615,210.478
			c10.614,0,17.867-9.198,17.867-22.466c0-13.267-7.253-22.288-18.044-22.288c-10.613,0-17.866,9.021-17.866,22.111
			C714.572,201.456,721.648,210.478,732.615,210.478 M729.254,135.488c-11.569,0-22.387,4.699-31.287,13.589
			c-10.506,10.317-15.4,22.577-15.4,38.581c0,17.471,5.864,31.485,17.429,41.654c8.585,7.563,18.549,11.399,29.611,11.399
			c8.477,0,14.563-1.962,20.277-6.897c4.388,5.092,9.85,6.366,14.217,6.366c11.24,0,19.091-8.796,19.091-21.39v-63.506
			c0-10.804-8.308-19.267-18.913-19.267c-6.001,0-10.734,2.088-14.313,6.347C743.634,137.38,737.607,135.488,729.254,135.488
			L729.254,135.488z M732.615,204.478c-8.879,0-12.043-8.597-12.043-16.643c0-9.787,4.658-16.111,11.866-16.111
			c8.89,0,12.044,8.774,12.044,16.288C744.482,196.208,740.812,204.478,732.615,204.478L732.615,204.478z"/>
	</g>
	<g>
		<path fill="#333333" d="M813.103,237.182c-5.923,0-11.551-3.297-14.005-8.203c-1.89-3.57-2.085-5.491-2.085-12.133v-47.13
			c-4.853-0.247-9.456-1.284-12.419-4.932c-2.394-2.828-3.679-6.189-3.679-9.675c0-7.543,5.049-13.342,12.573-14.455
			c1.363-0.272,1.936-0.357,3.524-0.384v-10.457c0-6.202,0.165-8.524,2.119-12.022c2.472-4.87,8.075-8.137,13.971-8.137
			c5.667,0,11.343,3.28,13.802,7.977c1.916,3.62,2.111,5.541,2.111,12.183v10.444h1.776c5.615,0,7.727,0.148,11.248,1.908
			c4.506,2.37,7.496,7.489,7.496,12.767c0,5.299-3.06,10.609-7.441,12.915c-3.52,1.761-5.28,1.937-11.303,1.937h-1.776v47.062
			c0,6.535-0.208,8.587-2.117,12.194C824.478,233.885,818.921,237.182,813.103,237.182z"/>
		<path fill="#FFFFFF" d="M813.103,112.654c4.6,0,9.199,2.653,11.145,6.368c1.592,3.008,1.769,4.423,1.769,10.791v13.444h4.776
			c5.661,0,7.076,0.177,9.906,1.592c3.361,1.769,5.838,5.838,5.838,10.083s-2.477,8.491-5.838,10.26
			c-2.83,1.415-4.068,1.592-9.906,1.592h-4.776v50.062c0,6.191-0.177,7.783-1.769,10.791c-1.945,3.892-6.545,6.545-11.145,6.545
			c-4.776,0-9.375-2.653-11.321-6.545c-1.592-3.008-1.769-4.423-1.769-10.791v-50.062c-6.899,0-10.791-1.061-13.091-3.892
			c-1.945-2.3-3.007-4.953-3.007-7.783c0-6.015,3.892-10.613,10.083-11.498c1.769-0.354,1.769-0.354,6.015-0.354v-13.444
			c0-6.191,0.177-7.783,1.769-10.613C803.728,115.308,808.326,112.654,813.103,112.654 M813.103,106.654
			c-6.977,0-13.633,3.901-16.617,9.724c-2.268,4.078-2.472,6.803-2.472,13.436v7.691c-0.314,0.052-0.651,0.116-1.039,0.193
			c-9.015,1.366-15.059,8.342-15.059,17.412c0,4.186,1.518,8.202,4.39,11.616c3.012,3.675,7.283,5.162,11.708,5.731v44.389
			c0,6.725,0.19,9.278,2.435,13.54c2.967,5.862,9.649,9.796,16.655,9.796c6.901,0,13.513-3.934,16.478-9.796
			c2.235-4.244,2.435-6.948,2.435-13.54v-44.065c5.259-0.03,7.544-0.311,11.366-2.222l0.056-0.028l0.055-0.029
			c5.41-2.846,9.044-9.103,9.044-15.57c0-6.361-3.635-12.547-9.044-15.393l-0.055-0.029l-0.056-0.028
			c-3.798-1.899-6.204-2.19-11.366-2.222v-7.448c0-6.755-0.191-9.3-2.465-13.598C826.561,110.506,819.946,106.654,813.103,106.654
			L813.103,106.654z"/>
	</g>
	<g>
		<path fill="#333333" d="M893.413,237.712c-14.199,0-27.022-4.805-36.108-13.528c-9.107-8.744-14.123-21.088-14.123-34.757
			c0-14.105,4.785-27.019,13.474-36.36c8.743-9.401,20.854-14.578,34.104-14.578c25.886,0,46.162,21.054,46.162,47.932
			c0,8.923-4.685,13.26-14.321,13.26h-43.843c3.491,6.459,8.583,9.39,16.07,9.39c5.414,0,6.465-0.225,20.077-6.942l0.108-0.051
			c2.139-0.951,4.646-1.497,6.88-1.497c7.032,0,13.437,6.488,13.437,13.613C935.33,226.502,915.351,237.712,893.413,237.712z
			 M904.324,175.99c-0.712-2.22-1.363-3.48-2.253-4.871c-2.424-3.385-6.449-5.403-10.781-5.403c-4.603,0-9.729,1.319-13.694,10.274
			H904.324z"/>
		<path fill="#FFFFFF" d="M890.76,141.488c24.234,0,43.162,19.636,43.162,44.932c0,7.253-3.361,10.26-11.321,10.26h-48.469
			c3.892,10.437,10.437,15.39,20.696,15.39c6.191,0,7.783-0.53,21.404-7.252c1.592-0.708,3.715-1.238,5.661-1.238
			c5.307,0,10.437,5.13,10.437,10.613c0,10.614-18.928,20.52-38.917,20.52c-27.772,0-47.231-18.75-47.231-45.285
			C846.182,161.831,865.11,141.488,890.76,141.488 M873.247,178.99h35.025c-1.238-4.953-2.123-7.076-3.715-9.552
			c-3.008-4.246-7.961-6.723-13.268-6.723C882.622,162.716,876.962,167.669,873.247,178.99 M890.76,135.488
			c-14.092,0-26.984,5.517-36.301,15.535c-9.206,9.899-14.277,23.537-14.277,38.404c0,14.493,5.343,27.605,15.045,36.921
			c9.647,9.263,23.208,14.364,38.186,14.364c10.484,0,21.327-2.54,29.747-6.969c9.782-5.145,15.169-12.088,15.169-19.55
			c0-5.132-2.729-9.993-6.734-13.115c6.676-2.884,8.326-9.162,8.326-14.657C939.922,157.86,918.328,135.488,890.76,135.488
			L890.76,135.488z M882.678,172.99c2.5-3.398,5.345-4.274,8.612-4.274c3.339,0,6.432,1.526,8.299,4.09
			c0.039,0.062,0.078,0.123,0.116,0.185H882.678L882.678,172.99z M884.713,202.68h22.192c-7.175,3.389-8.316,3.39-12.077,3.39
			C890.539,206.069,887.282,205.027,884.713,202.68L884.713,202.68z"/>
	</g>
</g>
<g>
	<g>
		<rect x="131.412" y="219.02" fill="#333333" width="14.601" height="14.601"/>
		<rect x="116.81" y="219.02" fill="#333333" width="14.601" height="14.601"/>
		<rect x="43.804" y="219.02" fill="#333333" width="14.601" height="14.601"/>
		<rect x="29.203" y="219.02" fill="#333333" width="14.601" height="14.601"/>
		<rect x="116.81" y="204.418" fill="#03B153" width="14.601" height="14.601"/>
		<rect x="29.203" y="204.418" fill="#008F3C" width="14.601" height="14.601"/>
		<rect x="116.81" y="189.817" fill="#CC2A40" width="14.601" height="14.601"/>
		<rect x="102.209" y="189.817" fill="#CC2A40" width="14.601" height="14.601"/>
		<rect x="87.608" y="189.817" fill="#CC2A40" width="14.601" height="14.601"/>
		<rect x="73.007" y="189.817" fill="#CC2A40" width="14.601" height="14.601"/>
		<rect x="58.405" y="189.817" fill="#CC2A40" width="14.601" height="14.601"/>
		<rect x="43.804" y="189.817" fill="#9D192D" width="14.601" height="14.601"/>
		<rect x="29.203" y="189.817" fill="#9D192D" width="14.601" height="14.601"/>
		<rect x="14.601" y="189.817" fill="#E6AB8C" width="14.601" height="14.601"/>
		<rect x="116.81" y="175.216" fill="#CC2A40" width="14.601" height="14.601"/>
		<rect x="102.209" y="175.216" fill="#CC2A40" width="14.601" height="14.601"/>
		<rect x="87.608" y="175.216" fill="#CC2A40" width="14.601" height="14.601"/>
		<rect x="73.007" y="175.216" fill="#CC2A40" width="14.601" height="14.601"/>
		<rect x="58.405" y="175.216" fill="#CC2A40" width="14.601" height="14.601"/>
		<rect x="43.804" y="175.216" fill="#9D192D" width="14.601" height="14.601"/>
		<rect x="29.203" y="175.216" fill="#9D192D" width="14.601" height="14.601"/>
		<rect x="14.601" y="175.216" fill="#03B153" width="14.601" height="14.601"/>
		<rect x="160.614" y="160.614" fill="#E6AB8C" width="14.601" height="14.601"/>
		<rect x="146.013" y="160.614" fill="#03B153" width="14.601" height="14.601"/>
		<rect x="131.412" y="160.614" fill="#03B153" width="14.601" height="14.601"/>
		<rect x="116.81" y="160.614" fill="#03B153" width="14.601" height="14.601"/>
		<rect x="102.209" y="160.614" fill="#CC2A40" width="14.601" height="14.601"/>
		<rect x="87.608" y="160.614" fill="#03B153" width="14.601" height="14.601"/>
		<rect x="73.007" y="160.614" fill="#03B153" width="14.601" height="14.601"/>
		<rect x="58.405" y="160.614" fill="#03B153" width="14.601" height="14.601"/>
		<rect x="43.804" y="160.614" fill="#9D192D" width="14.601" height="14.601"/>
		<rect x="29.203" y="160.614" fill="#008F3C" width="14.601" height="14.601"/>
		<rect x="14.601" y="160.614" fill="#03B153" width="14.601" height="14.601"/>
		<rect x="131.412" y="146.013" fill="#03B153" width="14.601" height="14.601"/>
		<rect x="116.81" y="146.013" fill="#E8E8E8" width="14.601" height="14.601"/>
		<rect x="102.209" y="146.013" fill="#E8E8E8" width="14.601" height="14.601"/>
		<rect x="87.608" y="146.013" fill="#E8E8E8" width="14.601" height="14.601"/>
		<rect x="73.007" y="146.013" fill="#E8E8E8" width="14.601" height="14.601"/>
		<rect x="58.405" y="146.013" fill="#E8E8E8" width="14.601" height="14.601"/>
		<rect x="43.804" y="146.013" fill="#C9C9C9" width="14.601" height="14.601"/>
		<rect x="29.203" y="146.013" fill="#03B153" width="14.601" height="14.601"/>
		<rect x="14.601" y="146.013" fill="#03B153" width="14.601" height="14.601"/>
		<rect x="116.81" y="131.412" fill="#E8E8E8" width="14.601" height="14.601"/>
		<rect x="102.209" y="131.412" fill="#E6AB8C" width="14.601" height="14.601"/>
		<rect x="87.608" y="131.412" fill="#E6AB8C" width="14.601" height="14.601"/>
		<rect x="73.007" y="131.412" fill="#E6AB8C" width="14.601" height="14.601"/>
		<rect x="58.405" y="131.412" fill="#E6AB8C" width="14.601" height="14.601"/>
		<rect x="43.804" y="131.412" fill="#C9C9C9" width="14.601" height="14.601"/>
		<rect x="29.203" y="131.412" fill="#C7C7C7" width="14.601" height="14.601"/>
		<rect x="131.412" y="116.81" fill="#E8E8E8" width="14.601" height="14.601"/>
		<rect x="116.81" y="116.81" fill="#FCFAFA" width="14.601" height="14.601"/>
		<rect x="102.209" y="116.81" fill="#FCFAFA" width="14.601" height="14.601"/>
		<rect x="87.608" y="116.81" fill="#E6AB8C" width="14.601" height="14.601"/>
		<rect x="73.007" y="116.81" fill="#FCFAFA" width="14.601" height="14.601"/>
		<rect x="58.405" y="116.81" fill="#FCFAFA" width="14.601" height="14.601"/>
		<rect x="43.804" y="116.81" fill="#CF987A" width="14.601" height="14.601"/>
		<rect x="29.203" y="116.81" fill="#C7C7C7" width="14.601" height="14.601"/>
		<rect x="14.601" y="116.81" fill="#C9C9C9" width="14.601" height="14.601"/>
		<rect x="146.013" y="102.209" fill="#E8E8E8" width="14.601" height="14.601"/>
		<rect x="131.412" y="102.209" fill="#E8E8E8" width="14.601" height="14.601"/>
		<rect x="116.81" y="102.209" width="14.601" height="14.601"/>
		<rect x="102.209" y="102.209" fill="#FCFAFA" width="14.601" height="14.601"/>
		<rect x="87.608" y="102.209" fill="#E6AB8C" width="14.601" height="14.601"/>
		<rect x="73.007" y="102.209" width="14.601" height="14.601"/>
		<rect x="58.405" y="102.209" fill="#FCFAFA" width="14.601" height="14.601"/>
		<rect x="43.804" y="102.209" fill="#CF987A" width="14.601" height="14.601"/>
		<rect x="29.203" y="102.209" fill="#C7C7C7" width="14.601" height="14.601"/>
		<rect x="14.601" y="102.209" fill="#C9C9C9" width="14.601" height="14.601"/>
		<rect x="0" y="102.209" fill="#C9C9C9" width="14.601" height="14.601"/>
		<rect x="146.013" y="87.608" fill="#E8E8E8" width="14.601" height="14.601"/>
		<rect x="131.412" y="87.608" fill="#E8E8E8" width="14.601" height="14.601"/>
		<rect x="116.81" y="87.608" fill="#CF987A" width="14.601" height="14.601"/>
		<rect x="102.209" y="87.608" fill="#CF987A" width="14.601" height="14.601"/>
		<rect x="87.608" y="87.608" fill="#CF987A" width="14.601" height="14.601"/>
		<rect x="73.007" y="87.608" fill="#CF987A" width="14.601" height="14.601"/>
		<rect x="58.405" y="87.608" fill="#CF987A" width="14.601" height="14.601"/>
		<rect x="43.804" y="87.608" fill="#CF987A" width="14.601" height="14.601"/>
		<rect x="29.203" y="87.608" fill="#C7C7C7" width="14.601" height="14.601"/>
		<rect x="14.601" y="87.608" fill="#C9C9C9" width="14.601" height="14.601"/>
		<rect x="0" y="87.608" fill="#C9C9C9" width="14.601" height="14.601"/>
		<rect x="131.412" y="73.006" fill="#008F3C" width="14.601" height="14.601"/>
		<rect x="116.81" y="73.006" fill="#008F3C" width="14.601" height="14.601"/>
		<rect x="102.209" y="73.006" fill="#008F3C" width="14.601" height="14.601"/>
		<rect x="87.608" y="73.006" fill="#008F3C" width="14.601" height="14.601"/>
		<rect x="73.007" y="73.006" fill="#008F3C" width="14.601" height="14.601"/>
		<rect x="58.405" y="73.006" fill="#008F3C" width="14.601" height="14.601"/>
		<rect x="43.804" y="73.006" fill="#008F3C" width="14.601" height="14.601"/>
		<rect x="29.203" y="73.006" fill="#008F3C" width="14.601" height="14.601"/>
		<rect x="14.601" y="73.006" fill="#008F3C" width="14.601" height="14.601"/>
		<rect x="116.81" y="58.405" fill="#03B153" width="14.601" height="14.601"/>
		<rect x="102.209" y="58.405" fill="#03B153" width="14.601" height="14.601"/>
		<rect x="87.608" y="58.405" fill="#03B153" width="14.601" height="14.601"/>
		<rect x="73.007" y="58.405" fill="#03B153" width="14.601" height="14.601"/>
		<rect x="58.405" y="58.405" fill="#029640" width="14.601" height="14.601"/>
		<rect x="43.804" y="58.405" fill="#029640" width="14.601" height="14.601"/>
		<rect x="29.203" y="58.405" fill="#029640" width="14.601" height="14.601"/>
		<rect x="116.81" y="43.804" fill="#008F3C" width="14.601" height="14.601"/>
		<rect x="102.209" y="43.804" fill="#008F3C" width="14.601" height="14.601"/>
		<rect x="87.608" y="43.804" fill="#008F3C" width="14.601" height="14.601"/>
		<rect x="73.007" y="43.804" fill="#008F3C" width="14.601" height="14.601"/>
		<rect x="58.405" y="43.804" fill="#008F3C" width="14.601" height="14.601"/>
		<rect x="43.804" y="43.804" fill="#008F3C" width="14.601" height="14.601"/>
		<rect x="29.203" y="43.804" fill="#008F3C" width="14.601" height="14.601"/>
		<rect x="102.209" y="29.203" fill="#03B153" width="14.601" height="14.601"/>
		<rect x="87.608" y="29.203" fill="#03B153" width="14.601" height="14.601"/>
		<rect x="73.007" y="29.203" fill="#03B153" width="14.601" height="14.601"/>
		<rect x="58.405" y="29.203" fill="#029640" width="14.601" height="14.601"/>
		<rect x="43.804" y="29.203" fill="#029640" width="14.601" height="14.601"/>
		<rect x="131.412" y="14.601" fill="#008F3C" width="14.601" height="14.601"/>
		<rect x="102.209" y="14.601" fill="#008F3C" width="14.601" height="14.601"/>
		<rect x="87.608" y="14.601" fill="#008F3C" width="14.601" height="14.601"/>
		<rect x="73.007" y="14.601" fill="#008F3C" width="14.601" height="14.601"/>
		<rect x="131.412" y="0" fill="#03B153" width="14.601" height="14.601"/>
		<rect x="116.81" y="0" fill="#008F3C" width="14.601" height="14.601"/>
		<rect x="102.209" y="0" fill="#03B153" width="14.601" height="14.601"/>
		<rect x="87.608" y="0" fill="#029640" width="14.601" height="14.601"/>
	</g>
</g>
</svg>
